<svg data-v-423bf9ae="" xmlns="http://www.w3.org/2000/svg" viewBox="0 0 38.31594476648126 60" class="font"><!----><!----><defs data-v-423bf9ae=""><linearGradient data-v-423bf9ae="" gradientTransform="rotate(25)" id="91630e4e-30ab-49aa-808e-b14ed7dc41b9" x1="0%" y1="0%" x2="100%" y2="0%"><stop data-v-423bf9ae="" offset="0%" style="stop-color: rgb(0, 220, 227); stop-opacity: 1;"></stop><stop data-v-423bf9ae="" offset="100%" style="stop-color: rgb(0, 136, 125); stop-opacity: 1;"></stop></linearGradient></defs><g data-v-423bf9ae="" id="25fefbc1-0971-4fc2-bd94-84a82150a7a5" fill="url(#91630e4e-30ab-49aa-808e-b14ed7dc41b9)" transform="matrix(4.470938871750703,0,0,4.470938871750703,-2.95081964122177,-8.271236423287846)"><path d="M0.66 11.72L0.66 11.72L0.66 11.72Q0.66 12.13 0.93 12.40L0.93 12.40L0.93 12.40Q1.20 12.67 1.68 12.67L1.68 12.67L1.68 12.67Q2.16 12.67 2.43 12.40L2.43 12.40L2.43 12.40Q2.71 12.13 2.71 11.72L2.71 11.72L2.71 11.72Q2.71 11.31 2.43 11.03L2.43 11.03L2.43 11.03Q2.16 10.75 1.67 10.75L1.67 10.75L1.67 10.75Q1.20 10.75 0.93 11.03L0.93 11.03L0.93 11.03Q0.66 11.31 0.66 11.72ZM0.66 6.82L0.66 6.82L0.66 6.82Q0.66 7.23 0.93 7.51L0.93 7.51L0.93 7.51Q1.20 7.78 1.68 7.78L1.68 7.78L1.68 7.78Q2.16 7.78 2.43 7.51L2.43 7.51L2.43 7.51Q2.71 7.23 2.71 6.82L2.71 6.82L2.71 6.82Q2.71 6.41 2.43 6.14L2.43 6.14L2.43 6.14Q2.16 5.86 1.67 5.86L1.67 5.86L1.67 5.86Q1.20 5.86 0.93 6.14L0.93 6.14L0.93 6.14Q0.66 6.41 0.66 6.82ZM9.23 8.57L9.23 8.57Q9.21 9.99 8.85 11.27L8.85 11.27L8.85 11.27Q8.47 12.62 7.69 13.84L7.69 13.84L7.69 13.84Q7.22 14.57 6.84 15.00L6.84 15.00L6.60 15.27L4.69 15.27L4.69 15.27Q4.74 15.16 4.87 15.00L4.87 15.00L4.87 15.00Q5.09 14.77 5.17 14.64L5.17 14.64L5.17 14.64Q5.93 13.49 6.41 12.13L6.41 12.13L6.41 12.13Q6.88 10.77 6.88 9.11L6.88 9.11L6.88 9.11Q6.88 8.83 6.87 8.57L6.87 8.57L6.87 8.57Q6.88 8.30 6.88 8.03L6.88 8.03L6.88 8.03Q6.88 6.36 6.41 4.99L6.41 4.99L6.41 4.99Q5.93 3.62 5.17 2.46L5.17 2.46L5.17 2.46Q5.09 2.34 4.87 2.11L4.87 2.11L4.87 2.11Q4.74 1.96 4.69 1.85L4.69 1.85L6.60 1.85L6.84 2.11L6.84 2.11Q7.22 2.54 7.69 3.29L7.69 3.29L7.69 3.29Q8.47 4.50 8.85 5.85L8.85 5.85L8.85 5.85Q9.21 7.14 9.23 8.57L9.23 8.57Z"></path></g><!----><!----></svg>