<svg data-v-423bf9ae="" xmlns="http://www.w3.org/2000/svg" viewBox="0 0 253.59585405296025 60" class="font"><!----><!----><!----><g data-v-423bf9ae="" id="b49ac638-cc49-4510-9599-8532a83e4762" fill="#047DAF" transform="matrix(4.4576526063226485,0,0,4.4576526063226485,-3.699852812723634,-17.20654013240341)"><path d="M7.98 15.13C7.98 13.94 7.18 13.13 5.24 13.13L3.61 13.13C2.98 13.13 2.49 13.08 2.49 12.63C2.49 12.24 2.91 12.01 3.25 11.93C3.53 11.98 3.82 12.01 4.14 12.01C5.92 12.01 7.08 11.03 7.08 9.49C7.08 8.62 6.73 7.95 6.10 7.52L6.10 7.18L7.78 7.18L7.78 5.98L6.47 5.98C5.82 5.98 5.50 6.40 5.50 6.96L5.50 7.20C5.11 7.04 4.65 6.96 4.14 6.96C2.37 6.96 1.20 7.95 1.20 9.49C1.20 10.53 1.72 11.30 2.59 11.70L2.59 11.77C1.83 11.96 1.29 12.28 1.29 12.99C1.29 13.54 1.60 13.86 2.09 14.04L2.09 14.18C1.29 14.39 0.83 14.80 0.83 15.58C0.83 16.66 1.69 17.32 4.19 17.32C6.73 17.32 7.98 16.62 7.98 15.13ZM6.55 15.23C6.55 15.89 5.92 16.24 4.77 16.24L3.64 16.24C2.58 16.24 2.16 15.79 2.16 15.25C2.16 14.87 2.34 14.60 2.69 14.43L5.19 14.43C6.22 14.43 6.55 14.74 6.55 15.23ZM4.14 10.96C3.16 10.96 2.70 10.44 2.70 9.67L2.70 9.30C2.70 8.53 3.16 8.01 4.14 8.01C5.12 8.01 5.59 8.53 5.59 9.30L5.59 9.67C5.59 10.44 5.12 10.96 4.14 10.96ZM13.05 5.81C13.80 5.81 14.08 5.45 14.08 4.98L14.08 4.69C14.08 4.23 13.80 3.86 13.03 3.86C12.28 3.86 12.00 4.23 12.00 4.69L12.00 4.98C12.00 5.45 12.28 5.81 13.05 5.81ZM9.81 14.35L16.11 14.35L16.11 13.12L13.80 13.12L13.80 7.13L9.81 7.13L9.81 8.36L12.28 8.36L12.28 13.12L9.81 13.12ZM17.89 14.35L24.16 14.35L24.16 13.12L21.73 13.12L21.73 8.36L24.49 8.36L24.49 7.13L21.73 7.13L21.73 5.22L24.49 5.22L24.49 3.99L22.05 3.99C20.79 3.99 20.20 4.75 20.20 5.82L20.20 7.13L17.75 7.13L17.75 8.36L20.20 8.36L20.20 13.12L17.89 13.12ZM30.90 14.35L32.42 14.35L32.42 7.13L30.90 7.13L30.90 12.03C30.90 12.87 30.11 13.27 29.33 13.27C28.35 13.27 27.83 12.70 27.83 11.55L27.83 7.13L26.31 7.13L26.31 11.77C26.31 13.52 27.29 14.52 28.74 14.52C29.93 14.52 30.52 13.87 30.83 13.12L30.90 13.12ZM40.92 14.35L40.92 13.12L36.39 13.12L40.78 8.47L40.78 7.13L34.83 7.13L34.83 8.36L39.07 8.36L34.68 13.01L34.68 14.35ZM49.32 14.35L49.32 13.12L44.79 13.12L49.18 8.47L49.18 7.13L43.23 7.13L43.23 8.36L47.47 8.36L43.08 13.01L43.08 14.35ZM57.72 14.35L57.72 13.12L53.19 13.12L57.58 8.47L57.58 7.13L51.63 7.13L51.63 8.36L55.87 8.36L51.48 13.01L51.48 14.35Z"></path></g><!----><!----></svg>